<svg width="27" height="27" viewBox="0 0 27 27" fill="none" xmlns="http://www.w3.org/2000/svg">
<path d="M13.5 0C6.05623 0 0 6.05623 0 13.5C0 20.9438 6.05623 27 13.5 27C20.9438 27 27 20.9438 27 13.5C27 6.05623 20.9438 0 13.5 0ZM13.5 25.3125C6.98647 25.3125 1.68751 20.0135 1.68751 13.5C1.68751 6.98647 6.98647 1.68751 13.5 1.68751C20.0135 1.68751 25.3125 6.98647 25.3125 13.5C25.3125 20.0135 20.0135 25.3125 13.5 25.3125Z" fill="white"/>
<path d="M14.3438 5.0625H12.6562V13.8493L17.9659 19.159L19.1591 17.9659L14.3438 13.1506V5.0625Z" fill="white"/>
</svg>
