<svg width="27" height="27" viewBox="0 0 27 27" fill="none" xmlns="http://www.w3.org/2000/svg">
<g clip-path="url(#clip0)">
<path d="M27.0004 13.5824C27.0004 6.0798 20.9558 -0.00195312 13.5004 -0.00195312C10.3078 -0.0012308 7.37419 1.11319 5.06287 2.97628C1.97447 5.46577 -0.00292969 9.29198 -0.00292969 13.5841C-0.00292969 20.3628 4.9347 25.9822 11.3877 27.0014V17.5092H7.96207V13.5841H11.3911V10.5888C11.3911 7.18511 13.4076 5.30523 16.4907 5.30523C17.9689 5.30523 19.513 5.57017 19.513 5.57017V8.91142H17.8103C16.1346 8.91142 15.6115 9.95936 15.6115 11.0343V13.5824H19.3544L18.757 17.5075H15.6098V26.9997C22.0628 25.9805 27.0004 20.3611 27.0004 13.5824Z" fill="white"/>
</g>
<defs>
<clipPath id="clip0">
<rect width="27" height="27" fill="white"/>
</clipPath>
</defs>
</svg>
