<svg width="26" height="30" viewBox="0 0 26 30" fill="none" xmlns="http://www.w3.org/2000/svg">
<path d="M13.0001 30C12.1747 30 11.4356 29.6604 11.0231 29.0915C11.0188 29.0856 11.0145 29.0795 11.0103 29.0735L1.63418 15.4571C-0.603915 12.2069 -0.53974 8.34899 1.80588 5.13735C4.10063 1.99532 8.17656 0.0757324 12.709 0.00237305C12.9027 -0.000791016 13.0973 -0.000791016 13.2908 0.00237305C17.8234 0.0757324 21.8993 1.99532 24.1941 5.13735C26.5397 8.34899 26.6039 12.2068 24.3658 15.4571L14.9897 29.0735C14.9855 29.0795 14.9812 29.0856 14.9769 29.0915C14.5644 29.6604 13.8254 30 13.0001 30ZM13 1.87503C12.9188 1.87503 12.8379 1.87567 12.7571 1.87696C9.05729 1.93685 5.72769 3.5071 3.8505 6.07743C1.92249 8.71737 1.86917 11.8877 3.70797 14.5581L13 28.0522L22.292 14.5581C24.1308 11.8877 24.0775 8.71737 22.1494 6.07743C20.2722 3.50716 16.9426 1.93685 13.2427 1.87696C13.1622 1.87567 13.0812 1.87503 13 1.87503Z" fill="white"/>
<path d="M12.9988 14.5938C10.0669 14.5938 7.68164 12.7012 7.68164 10.375C7.68164 8.04877 10.0669 6.15625 12.9988 6.15625C15.9308 6.15625 18.316 8.04877 18.316 10.375C18.316 12.7012 15.9308 14.5938 12.9988 14.5938ZM12.9988 8.03125C11.37 8.03125 10.0448 9.08266 10.0448 10.375C10.0448 11.6673 11.37 12.7188 12.9988 12.7188C14.6277 12.7188 15.9528 11.6673 15.9528 10.375C15.9528 9.08266 14.6277 8.03125 12.9988 8.03125Z" fill="white"/>
</svg>
