<svg width="30" height="30" viewBox="0 0 30 30" fill="none" xmlns="http://www.w3.org/2000/svg">
<g clip-path="url(#clip0)">
<path d="M30 8.43911C30 9.40751 29.8288 10.3677 29.4877 11.3066C27.985 15.4431 25.5377 19.2826 22.4101 22.4102C19.2826 25.5378 15.443 27.9851 11.3066 29.4877C9.97729 29.9706 8.60508 30.113 7.22795 29.9111C5.938 29.7219 4.68573 29.2222 3.60647 28.466C2.52247 27.7065 1.62087 26.6939 0.999158 25.5378C0.336197 24.3049 0 22.9593 0 21.5381C0 21.0961 0.308835 20.7141 0.741005 20.6214L7.60785 19.15C7.9188 19.0833 8.24234 19.1789 8.46721 19.4037L10.9815 21.9181C15.6973 19.5462 19.546 15.6974 21.9179 10.9816L19.4036 8.46735C19.1788 8.24248 19.0833 7.91888 19.1498 7.60799L20.6213 0.741142C20.7139 0.308914 21.0959 0.000139236 21.5379 0.000139236C22.9591 0.000139236 24.3049 0.336336 25.5377 0.999355C26.6939 1.62107 27.7064 2.52267 28.466 3.60667C29.2221 4.68587 29.7218 5.93814 29.911 7.22814C29.9704 7.63236 29.9999 8.03653 30 8.43911ZM1.91594 22.2871C2.12288 24.1617 3.10546 25.8256 4.68244 26.9305C6.45571 28.173 8.63678 28.4628 10.6665 27.7255C18.6189 24.8367 24.8366 18.6189 27.7254 10.6665C28.4627 8.63686 28.1731 6.45579 26.9305 4.68247C25.8256 3.10548 24.1617 2.1229 22.2871 1.91596L21.0901 7.50212L23.7159 10.1279C23.9953 10.4074 24.0696 10.8319 23.9015 11.1894C21.2813 16.7668 16.7667 21.2813 11.1894 23.9015C10.8318 24.0695 10.4073 23.9953 10.1279 23.7159L7.50209 21.0901L1.91594 22.2871Z" fill="white"/>
</g>
<defs>
<clipPath id="clip0">
<rect width="30" height="30" fill="white" transform="translate(0 30) rotate(-90)"/>
</clipPath>
</defs>
</svg>
